<?xml version="1.0" ?><!-- Uploaded to: SVG Repo, www.svgrepo.com, Generator: SVG Repo Mixer Tools -->
<svg width="800px" height="800px" viewBox="0 0 80 80" data-name="Layer 1" id="Layer_1" xmlns="http://www.w3.org/2000/svg"><defs><style>.cls-1{fill:#ffda00;}.cls-2{fill:#eabd00;}.cls-3,.cls-6{fill:none;stroke:#000000;stroke-linecap:round;stroke-width:4px;}.cls-3{stroke-linejoin:round;}.cls-4{fill:#48ef48;}.cls-5{fill:#2dd32d;}.cls-6{stroke-miterlimit:10;}</style></defs><title/><rect class="cls-1" height="10" rx="3" transform="translate(-18.3747 64.2637) rotate(-53.345)" width="7" x="51.2761" y="45.4207"/><path class="cls-2" d="M58.47,48.8069l-2.825-2.1022a2.9959,2.9959,0,0,1,.5617,4.1483l-.597.8022a3,3,0,0,1-4.1978.6158l-.3836-.2855c.02.0152.0339.0343.0538.0491l3.2089,2.3879a3,3,0,0,0,4.1977-.6157l.597-.8022A3,3,0,0,0,58.47,48.8069Z"/><rect class="cls-3" height="10" rx="3" transform="translate(-18.3747 64.2637) rotate(-53.345)" width="7" x="51.2761" y="45.4207"/><line class="cls-3" x1="56.2498" x2="54.3567" y1="43.4152" y2="45.9592"/><line class="cls-3" x1="61.0633" x2="59.1701" y1="46.9971" y2="49.5412"/><path class="cls-4" d="M43.5514,46.2794C53.1132,33.5717,65.3033,20.277,60.18,15.3149c-5.1919-5.288-23.9383,1.9748-35.168,12.2589-11.6988,9.8109-4.2075,20.73-2.0515,22.9134C25.4106,52.9064,34.548,59.21,43.5514,46.2794Z"/><path class="cls-5" d="M60.18,15.3149c-1.8358-1.87-5.37-2.1646-9.6638-1.3173A6.5412,6.5412,0,0,1,54.4311,16.02c4.6993,5.3658-8.5406,17.6154-19.1129,29.4956-3.6149,4.3766-7.04,6.256-10.0507,6.7572,3.9028,2.4134,11.1337,4.2759,18.2839-5.9932C53.1132,33.5717,65.3033,20.277,60.18,15.3149Z"/><path class="cls-6" d="M43.5514,46.2794C53.1132,33.5717,65.3033,20.277,60.18,15.3149c-5.1919-5.288-23.9383,1.9748-35.168,12.2589-11.6988,9.8109-4.2075,20.73-2.0515,22.9134C25.4106,52.9064,34.548,59.21,43.5514,46.2794Z"/><path class="cls-3" d="M49.5606,22.9333A143.7754,143.7754,0,0,0,23.2746,50.06,9.9582,9.9582,0,0,0,24.3,63.0022h0a11.7989,11.7989,0,0,0,8.3431,3.4558h.0018a17.5,17.5,0,0,0,12.3744-5.1256h0q3.6143-3.6142,6.9794-7.4653l.609-.697"/><path class="cls-6" d="M38.6988,24.9257q.8256,2.94,1.6774,5.9274,3.07.9132,6.1478,1.8183"/><path class="cls-6" d="M30.89,29.9312q1.8408,3.2764,3.74,6.6282,3.2977,1.8878,6.5528,3.7149"/><path class="cls-6" d="M25.619,37.4794q1.4293,2.8872,2.9457,5.8677,2.8166,1.4333,5.5644,2.7873"/></svg>