<!DOCTYPE svg PUBLIC "-//W3C//DTD SVG 1.1//EN" "http://www.w3.org/Graphics/SVG/1.1/DTD/svg11.dtd">
<!-- Uploaded to: SVG Repo, www.svgrepo.com, Transformed by: SVG Repo Mixer Tools -->
<svg version="1.1" id="Layer_1" xmlns="http://www.w3.org/2000/svg" xmlns:xlink="http://www.w3.org/1999/xlink" viewBox="-102.4 -102.4 716.80 716.80" xml:space="preserve" width="800px" height="800px" fill="#ffffff">
<g id="SVGRepo_bgCarrier" stroke-width="0"/>
<g id="SVGRepo_tracerCarrier" stroke-linecap="round" stroke-linejoin="round"/>
<g id="SVGRepo_iconCarrier"> <rect x="233.412" style="fill:#FFAF33;" width="45.176" height="90.353"/> <g> <rect x="84.347" y="61.757" transform="matrix(-0.7071 0.7071 -0.7071 -0.7071 258.1618 106.9313)" style="fill:#FFDB2D;" width="45.176" height="90.352"/> <rect y="233.412" style="fill:#FFDB2D;" width="90.353" height="45.176"/> <rect x="84.335" y="359.89" transform="matrix(0.7071 0.7071 -0.7071 0.7071 317.7418 43.0348)" style="fill:#FFDB2D;" width="45.176" height="90.352"/> <rect x="233.412" y="421.647" style="fill:#FFDB2D;" width="45.176" height="90.353"/> </g> <g> <rect x="382.48" y="359.906" transform="matrix(0.7071 -0.7071 0.7071 0.7071 -167.7949 405.0719)" style="fill:#FFAF33;" width="45.176" height="90.352"/> <rect x="421.647" y="233.412" style="fill:#FFAF33;" width="90.353" height="45.176"/> <rect x="382.477" y="61.758" transform="matrix(-0.7071 -0.7071 0.7071 -0.7071 615.8759 468.9727)" style="fill:#FFAF33;" width="45.176" height="90.352"/> </g> <circle style="fill:#FFEA8A;" cx="256" cy="256" r="180.706"/> <path style="fill:#FFDB2D;" d="M256,75.294v361.412c99.801,0,180.706-80.905,180.706-180.706S355.801,75.294,256,75.294z"/> <polygon style="fill:#FFAF33;" points="256,331.294 256,278.588 195.765,278.588 256,180.706 256,233.412 316.235,233.412 "/> </g>
</svg>